<svg enable-background="new 0  0 1700.958 1665.465" version="1.1" viewBox="0 0 1700.958 1665.465" xml:space="preserve" xmlns="http://www.w3.org/2000/svg">
       
    
      
    <svg width="1800" height="1800">
    <path d="m569.41 1065.1c1.61 1.8101 0.69 3.8301 0.2 5.7001-3.74 14.1-4.07 14.17-14.18 4.26-5.27-5.17-10.66-10.22-16.22-15.54 4.39-2.91 8.39-7.21 13.58-5.91 6.7 1.68 12.01 6.31 16.62 11.49z" fill="#000000"/>
    <path d="m481.19 1115.4c0.13 2.92-1.07 4.79-4.31 4.79-3.26 0.01-4.3-1.95-4.4-4.9399 0.46-2.52 0.79-5.4701 4.4-5.4301 3.53 0.0401 4.17 2.7701 4.31 5.58z" fill="#000000"/>
    <path d="m403.61 750.59v0.1c-0.07 0.41-0.2 0.76-0.4 1.04 0.2-0.28 0.33-0.63 0.39-1.04 0-0.03 0-0.0699 0.01-0.1z" fill="#000000"/>
    <path d="m403.56 750.14c-0.01-0.08-0.03-0.15-0.06-0.21 0.03 0.0701 0.05 0.14 0.06 0.21z" fill="#000000"/>
    <path d="m386.14 1066.3c1.34-2.4199 3.6-0.96 5.44-1.3199-1.65 1.14-3.55 1.1999-5.44 1.3199z" fill="#000000"/>
    <path d="m348.1 1098.2c2.02 6.6899 2.47 13.39 0.15 20.09-0.42 1.23-0.9 2.77-2.64 2.4399-1.33-0.26-1.58-1.62-1.72-2.77-0.36-2.97-0.64-5.9399-0.96-9.0299 0.38-3.39 0.73-6.86 1.19-10.32 0.16-1.15 0.55-2.4199 2.04-2.38 1.12 0.03 1.64 0.9601 1.94 1.9701z" fill="#000000"/>
    <path d="m313.9 963.43c0.16 2.88-0.85 4.95-4.08 5.05-3.1 0.09-4.54-1.59-4.55-5.02 0.17-2.39 0.68-5.28 4.09-5.42 3.35-0.1401 4.38 2.4799 4.54 5.39z" fill="#000000"/>
    <path d="m202.2 1927.4c12.14-1.1901 24.31-0.27 36.47-0.4301-2.99 1.17-6.12 0.9501-9.21 0.88-0.47 0.3201-0.97 0.63-1.46 0.9501h-2c-0.67-0.8701-1.33-0.8701-2 0h-4c-0.33-0.4601-0.67-0.4501-1 0h-7c-1.83-1.5601-4.08-0.75-6.13-1.0701-1.22-0.11-2.44-0.2199-3.67-0.3299z" fill="#000000"/>
    <path d="m233.99 827.67c0.46 0.81 1.38 1.72 0.17 2.54-0.9 0.61-1.76 1.45-3.12 1.08-3.19-0.89-8.28-8-7.99-11.28 0.13-1.55 1.02-2.35 2.4-2.73 1.74 0.34 3.19 1.08 4.09 2.62 1.51 2.57 2.98 5.17 4.45 7.77z" fill="#000000"/>
    <path d="m231 1928.8h-3c0.49-0.3201 0.99-0.63 1.46-0.9501 0.5 0.3201 1.02 0.63 1.54 0.9501z" fill="#000000"/>
    <path d="m226 1928.8h-2c0.67-0.8701 1.33-0.8701 2 0z" fill="#000000"/>
    <path d="m220 1928.8h-1c0.33-0.4501 0.67-0.4601 1 0z" fill="#000000"/>
    <path d="m205.41 800.19c12.49-0.66 10.29-1.9399 10.22 11.82-3.75-4.3299-6.74-7.8-10.22-11.82z" fill="#000000"/>
    <path d="m212 1928.8h-8.56c0.88-0.1101 1.69-0.4701 2.43-1.0701 2.05 0.3201 4.3-0.49 6.13 1.0701z" fill="#000000"/>
    <path d="m202 1928.8h1.44c-0.46 0.0699-0.94 0.0699-1.44 0z" fill="#000000"/>
    <path d="m1154.2 898.91c-3.6599-0.09-6.58 0.71-9.51 3.22-31.21 26.72-65.79 47.68-105.21 59.92-29.87 9.28-60.7 13.86-91.69 17.31-40.66 4.52-81.45 6-122.27 3.15-51.04-3.55-101.08-13.13-150.04-27.88-56.78-17.1-110.2-41.5-158.75-75.87-23.34-16.52-44.41-35.62-63.54-56.9-14.98-16.67-28.04-34.66-38.81-54.32-1.73-3.61-3.46-7.22-5.1901-10.84 0.04-1.01-0.2599-1.8799-1.1299-2.4999v-1e-4c-0.16-2.23-2.1901-3.78-2.64-5.59-2.7301-10.97-6.89-21.5-9.41-32.55-6.11-26.74-5.78-53.88-6.21-81.05-0.1201-8.2 2.79-13.18 9.02-17.24 0.5599-0.3599 1.1099-0.73 1.6499-1.1299 19.92-14.64 64.38-12.55 80.35 23.83 8.46 19.28 14.78 39.26 18.96 59.91 0.63 3.08 0.37 6.8899 2.13 9.0599 1.9501 2.41 5.9501 0.6801 9.0399 0.86 2.7001 0.16 3.1301 1 1.92 3.3401-1.67 3.26-3.1801 6.6-4 10.21-1.3199 5.87-0.85 6.29 5.1 5.8201 12.6-0.99 23.37-6.3601 33.7-13.24 12.03-8 25.56-10.78 40.55-10.41-1.0499 2.67-1.72 4.9001-2.79 6.92-1.4199 2.6801-1.1199 4.16 2.1001 4.92 6.03 1.4399 8.9199 5.9399 10.56 11.52 2.3899 8.09 2.74 8.48 10.62 5.01 7.1201-3.1301 14.2-5.4 22.13-4.65 4.46 0.42 8.99 0.0399 13.49 0.09 12.83 0.14 24.15 4 33.57 13.09 8.8099 8.4899 19.71 11.45 31.7 10.8 3.71-0.2 7.24-1.23 10.14-3.74 3.41-2.97 6.99-5.72 11.06-7.67 2.85-1.37 2.08-2.77 0.6699-4.54-2.6199-3.26-5.47-6.26-8.8599-8.75-7.4901-5.47-16.09-7.8199-25.07-9.24-11.72-1.8599-21.97-6.58-29.69-15.92-0.8701-1.0601-2.6702-2.13-1.7201-3.73 0.7101-1.21 2.4401-0.5701 3.7201-0.5801 14.19-0.05 27.72 3.25 40.97 8.03 14.48 5.21 27.68 12.32 37.5 24.63 0.72 0.91 0.95 2.49 3 2.4501v-32.51c0-1.16 0.1599-2.6301-1.3801-2.8101-7.01-0.8-11.31-6.11-16.47-9.89-26.5-19.4-51.99-40.07-76.92-61.45-26.82-22.98-51.7-48.16-79.41-70.14-24.86-19.7-50.75-37.87-78.45-53.31-4.1399-2.3099-8.21-6.8-14.4-4.3199 39.49 39.62 83.33 74.05 123.36 113.87-7.49 0.9299-13.99 0.14-20.5-0.8101-20.08-2.9299-35.88-14.87-52.15-25.44-16.77-10.88-32.56-23.26-49.09-34.52-32.34-22.02-67.96-32.44-107.25-29.54-26.84 1.99-50.12 11.53-68.74 31.39-11.68 12.47-19.55 27.4-26.96 42.54-7.99 16.31-14.4 33.32-21.03 50.22-2.8 7.13-8.16 8.54-13.99 3.7001-14.09-11.68-20.57-27.94-27.3-44.27-9.19-22.26-12.59-45.86-17.37-69.15-5.41-26.39-8.5-53.21-14.25-79.54-1.23-5.6301-3.14-11.2-3.61-16.88-0.91-11.06-1.99-21.99-6.55-32.25-0.71-1.6-0.72-3.1899-0.91-4.8199-3.14-26.87-2.27-53.92-3.59-80.87-2.64-53.77 2.02-107.22 11.19-160.25 7.89-45.64 17.57-90.92 29.07-135.79 1.46-5.6799 1.53-11.3 1.14-18.15-1.27 1.8699-1.96 2.75-2.5 3.7-14.04 24.7-25.61 50.5-34.26 77.56-17.08 53.47-24.42 108.75-30.17 164.3-0.43 4.14-0.68 8.2999-1.04 12.45-0.35 3.97-0.73 7.9399-1.23 13.23-0.99-2.17-1.44-3.03-1.79-3.9301-6.66-16.98-11.01-34.56-13.79-52.56-4.07-26.32-3.22-52.85-3.28-79.33-0.04-16.05-0.01-32.1-0.01-47.65-0.5 0.39-0.57 1.78-0.94 3.02-4.27 14.21-7.81 28.6-10.82 43.12-8.0699 39.01-10.17 78.6-11.13 118.27-0.32 13.11-1.88 26.28 0.6899 39.38 3.76 19.28 7.42 38.57 11.07 57.87 1.88 9.96 0.85 19.94 0.44 29.99-3.48-3.21-5.72-6.8401-7.55-10.86-6.36-14.03-14.94-27.19-15.81-43.3-0.24-4.2401-2.6-8.01-6.93-10.87-1.22 7.8701-2.55 15.06-2.48 22.36 0.2599 26.52 4.59 52.36 13.99 77.19 8.65 22.84 15.91 45.97 18.17 70.42 0.85 9.17 1.77 18.36 0.83 28.73-12.69-12.33-24.6-23.9-37.05-36-1.31 9.6301 1.11 17.56 4.25 25.3 9.83 24.24 23.51 46.3 38.57 67.55 3.92 5.53 7.83 11.07 12.12 17.14-3.97 0.8201-6.88 0.54-9.63-1.4299-5.82-4.1899-11.67-8.3101-17.53-12.44-4.9-3.46-9.76-6.96-14.75-10.3-3.77-2.52-8.71-2.48-11.93-0.77-2.45 1.3 1.2 5.3201 1.85 8.2 0.37 1.6101 1.16 3.1201 1.77 4.6702 12.02 30.19 26.09 59.17 49.31 82.69 2.27 2.3 4.46 4.6699 7.22 7.5601-5.25 0.5399-9.57 0.8899-13.78-0.03-16.92-3.6901-33.86-7.3601-50.68-11.48-4.16-1.02-4.05 0.6499-3.95 3.51 0.06 1.5099 0.6 2.48 1.98 3.1399 1.65 0.78 3.2401 1.7 4.83 2.6101 26.63 15.25 53.04 31.08 84.82 33.14 1.79 0.1101 2.03 1.12 2.22 2.62 1.6299 12.73-3.34 22.82-14.59 29.41-5.99 3.51-5.93 3.5-0.39 8.04 1.8 1.48 3.7 1.3 5.65 1.3 13.67 0.02 27.34 0.2 41-0.1 4.52-0.1 7.21 0.91 8.11 5.65 0.46 2.44 1.9 4.73 3.75 6.41 7.59 6.91 7.14 20.97-0.93 29.34-9.66 10.02-21.22 14.93-35.17 12.5-8.34-1.45-16.81-2.4901-24.81-5.53-2.64-1-4.72-0.2-6.59 1.95 1.92 1.6 3.59 3.11 5.86 3.68l-0.02-0.02c0.07-0.01 0.13-0.02 0.2-0.02 0.01 0.03 0.01 0.06 0.01 0.09-0.06-0.01-0.13-0.03-0.19-0.05 1.42 1.73 3.25 2.91 5.31 3.75 4.86 4.45 10.94 7.13 16.13 11.85h-26.34c1.31 2 2.79 3 4.24 4.04 10.82 7.7 23.4 11.94 35.11 17.89 21.19 10.75 32.31 29.45 39.8 50.9 1.89 5.4 4.16 10.45 8.03 14.79 0.61-6.5099 0.46-12.8 0.67-19.07 0.11-3.04-1.65-7.4901 0.98-8.78 2.61-1.28 6.1 1.68 9 3.26 10.84 5.88 15.48 16.48 20.11 26.93 5.52 12.47 8.45 25.92 14.08 38.38 3.88 8.57 7.97 17.09 15.85 22.61 4.05 2.84 3.57 4.76 1.15 8.2-6.5099 9.26-12.84 18.66-18.98 28.17-6.34 9.83-9.84 20.52-8.56 33.73 6.61-9.88 12.57-18.79 18.53-27.7 1.4 8.29 0.47 15.78-2.56 22.96-2.54 6.01-4.53 12.16-5.1 18.71-0.18 2.02-0.47 3.9 2.6 4.28 6.34 0.7799 11.12 4.5399 14.8 9.3899 2.43 3.2001 3.52 2.3201 5.26-0.34 5.8-8.87 9.87-18.46 12.51-28.71 3.9901-15.43 12.88-22.1 28.9-21.89 2.83 0.03 5.31 0.59 6.61 3.48 1.27 2.84-0.91 4.29-2.43 5.96-5.64 6.2301-9.07 13.26-9.65 21.86-1.1801 17.49-0.48 34.98-0.71 52.46-0.07 5.83-0.12 11.66 0.91 17.44 1.64 9.2101 5.15 17.42 12.19 23.99 2.04-2.1699 2.44-4.72 3.47-6.96 0.94-2.02 1.87-2.13 3.08-0.2999 1.59 2.4099 3.16 4.8199 4.97 7.6 2.54-3.2101 4.03-6.15 5.2499-9.24 1.77-4.49 3.3901-9.04 5.29-13.47 0.6001-1.3899 1.02-3.7 2.97-3.48 1.47 0.17 1.6001 2.3101 2.0901 3.65 4.6599 12.84 9.25 25.69 13.89 38.53 1.5 4.12 4.1201 7.22 8.42 9.1899 0.4901-10.13-0.0499-19.77-0.83-29.4-0.75-9.3199-3.0901-18.36-5.21-27.45-3.23-13.82-5.5-27.76-4.42-42.04 1.34-2.4199 3.6-0.96 5.4401-1.3199 2.71-0.67 5.4199-1.36 8.1399-2.02 1.6201-0.39 3.27-0.9 4.8401 0.13 6.53 4.3101 12.31 9.41 16.4 16.17 7.8501 12.98 10.09 27.76 13.12 42.21 2.8398 13.53 5.0898 27.16 10.82 39.92 4.1 9.14 10.69 14.56 20.83 15.64 3.41 0.36 4.79-0.4 4.8-4.0701 0.02-6.02 0.55-12.18 3.4299-17.52 4.8801-9.08 8.1301-18.58 9.3101-28.8 0.28-2.42 1.22-2.9301 3.11-1.1801 2.2001 2.03 4.49 3.98 6.6901 6.02 36.94 34.24 70.78 71.16 99.76 112.55 22.81 32.58 39.96 67.52 49.45 106.2 11.03 45 13.01 90.57 8.78 136.52-5.5601 60.37-23.79 116.67-55.51 168.36-26.45 43.09-58.71 81.62-94.86 116.86-41.77 40.73-88.12 75.39-138.96 104.06-27.77 15.65-57.24 23.24-89.33 22.66-45.82-0.8199-91.66-0.23-137.49-0.23-1.36 0-2.8-0.26-4.34 0.8101 14.38 9.24 29.5 16.06 45.26 21.49 8.59 2.96 17.24 5.83 26.37 6.72 12.14-1.1901 24.31-0.27 36.47-0.4301 1.32 0.03 2.65 0.16 3.96 0.0601 32.46-2.37 63.84-9.5601 94.1-21.5 26.32-10.38 51.61-22.97 76.13-37.08 20.06-11.55 39.84-23.71 57.79-38.28 25.56-20.76 49.38-43.52 72.22-67.26 32.01-33.28 61.29-68.8 88.26-106.29 29.43-40.92 52.3-84.98 65.96-133.65 11.66-41.53 16.64-83.88 16.24-126.95-0.3901-40.2-7.4001-79.13-21.37-116.86-11.68-31.55-29.65-59.69-47.42-87.89-20.81-33.03-44.43-64.03-69.58-93.87-1.1299-1.35-2.74-2.4301-2.97-4.53 5.04-2.4199 10.91-2.52 15.45-6.52 2.7001-2.37 7.73-0.22 9.29 3.2301 3.5701 7.8899 6.99 15.84 10.52 23.75 2.79 6.24 8.96 6.87 13.01 1.2699 1.05-1.46 1.59-3.2799 2.3999-4.9099 2.2201-4.5 6.8-7.1001 10.95-5.86 4.14 1.24 8.2999 2.5499 12.2 4.37 11.62 5.4199 23.11 11.12 34.67 16.68 15.9 7.66 31.92 15.05 47.67 23.01 8.14 4.11 16.37 6.1801 26.39 4.87-2.91-1.59-1.9401-5.4399-4.39-5.9399-8.5-1.74-14.31-8.2201-21.86-11.71-12.46-5.77-25.09-11.45-35.69-20.72-9.17-8.02-18.21-16.11-26.22-25.31-1.4701-1.6901-2.61-3.6901-1.7101-5.9301 1.03-2.5699 3.4801-1.34 5.27-1.3 24.72 0.53 48.59 5.61 71.76 14.04 15.37 5.6 30.96 10.24 47.13 12.97 27.15 4.5901 54.51 2.85 81.81 3.0601 0.7999 0.01 1.7699 0.2 2.46-0.79-15.71-4.15-31.36-8.15-46.93-12.42-23.75-6.5199-47.88-11.78-70.62-21.66-12.52-5.4301-24.64-11.69-36.76-17.89-3.17-1.63-6.8701-3.6901-9.1301-8.21 7.9202 1.08 14.47 3.8999 21.15 6.22 13.4 4.64 26.09 10.98 39.22 16.27 13.75 5.5399 28.07 8.38 42.93 8.09 3.6101-0.0701 8.41 0.59 10.23-2.64 2.73-4.8199 6.6301-3.9399 10.56-4.1801 39.4-2.3999 78.91-3.5 117.96-9.96 13.09-2.16 26.11-4.71 38.88-8.79-51.5-0.96-102.42-6.4299-152.76-17.4 1.5798-0.88 3.1399-1.2001 4.71-1.36 29.01-2.8501 58.03-5.66 87.04-8.53 6.8699-0.6801 14.07-0.3101 19.65-5.67 0.79-0.75 2.0801-1.03 3.1899-1.36 12.45-3.6801 24.93-7.28 37.37-10.99 13.7-4.09 27.74-7.25 40.31-14.52 28.28-16.32 56.46-32.84 83.22-51.59 13.49-9.45 27.12-18.83 37.93-31.54 2.62-3.08 4.63-6.52 5.75-10.43 0.7105-2.4804 0.0405-3.6304-2.8196-3.7004zm-473.71-235.55c1.76 0.11 6.7201-0.75 6.03 1.28 3.6899 5.4091-0.4927 9.651-6.99 6.71-2.0999-0.9504-7.34-2.3101-7.26-4.64 0.08-2.7601 5.9299-3.4801 8.22-3.35zm-464.84 148.65c-3.75-4.33-6.74-7.8-10.22-11.82 12.49-0.66 10.29-1.94 10.22 11.82zm18.53 18.2c-0.9 0.61-1.7599 1.45-3.12 1.08-3.19-0.89-8.28-8-7.99-11.28 0.13-1.55 1.02-2.35 2.4-2.73 1.74 0.34 3.19 1.08 4.09 2.62 1.51 2.57 2.98 5.17 4.45 7.77 0.46 0.81 1.38 1.72 0.17 2.54zm75.66 138.27c-3.1 0.09-4.54-1.59-4.55-5.02 0.17-2.39 0.68-5.28 4.09-5.42 3.35-0.14 4.38 2.48 4.54 5.39 0.16 2.88-0.85 4.95-4.08 5.05zm38.43 149.82c-0.42 1.23-0.9 2.77-2.64 2.4401-1.33-0.26-1.58-1.62-1.72-2.77-0.36-2.9701-0.64-5.9401-0.96-9.03 0.38-3.39 0.73-6.86 1.19-10.32 0.16-1.15 0.55-2.42 2.04-2.38 1.1201 0.0299 1.64 0.96 1.94 1.97 2.02 6.6897 2.47 13.39 0.15 20.09zm128.63 1.8499c-3.26 0.01-4.2999-1.95-4.4-4.9399 0.46-2.52 0.79-5.47 4.4-5.4301 3.5299 0.04 4.17 2.77 4.3099 5.5801 0.1302 2.9199-1.0699 4.7899-4.3099 4.7899zm92.73-49.34c-3.74 14.1-4.0699 14.17-14.18 4.26-5.27-5.17-10.66-10.22-16.22-15.54 4.39-2.9099 8.39-7.21 13.58-5.9099 6.7 1.6799 12.01 6.3099 16.62 11.49 1.6101 1.8098 0.6901 3.8299 0.2001 5.6999z"/>
    <path d="m148.91 801.05c0.01 0.03 0.01 0.06 0.01 0.09l-0.21-0.07c0.07-0.01 0.13-0.02 0.2-0.02z" fill="#000000"/>
    <path d="m148.92 801.14c-0.06-0.01-0.13-0.03-0.19-0.05l-0.02-0.02 0.21 0.07z" fill="#000000"/>
    
    <text x="0" y="15" fill="#000000">I love SVG!</text>
    <rect width="500" height="600" style="fill:white;stroke-width:3;stroke:rgb(0,0,0);opacity:0.1" />
    </svg> 

</svg>